# Blender v3.0.1 OBJ File: ''
# www.blender.org
mtllib screw_right_transformed.mtl
o right_screw
v -25.086048 -38.246792 -75.406738
v -25.292109 -37.889565 -74.495728
v -24.961050 -38.406979 -74.427597
v -24.677734 -38.863209 -74.733459
v -24.550385 -39.083992 -75.296486
v -24.627638 -38.984993 -75.901634
v -24.879988 -38.604019 -76.317734
v -25.211050 -38.086601 -76.385872
v -25.494364 -37.630375 -76.080017
v -25.621716 -37.409588 -75.516983
v -25.544460 -37.508587 -74.911842
v -33.519592 -43.616718 -75.208611
v -33.725647 -43.259487 -74.297615
v -33.978004 -42.878517 -74.713722
v -34.055260 -42.779518 -75.318863
v -33.927902 -43.000298 -75.881897
v -33.644592 -43.456524 -76.187759
v -33.313530 -43.973949 -76.119621
v -33.061176 -44.354916 -75.703506
v -32.983925 -44.453918 -75.098373
v -33.111279 -44.233143 -74.535339
v -33.394592 -43.776909 -74.229477
vn 0.8434 0.5370 -0.0198
vn 0.8433 0.5370 -0.0198
vn -0.8434 -0.5370 0.0198
vn -0.8433 -0.5370 0.0198
vn -0.0426 0.1036 0.9937
vn 0.2804 -0.4083 0.8687
vn 0.4963 -0.7642 0.4119
vn 0.5226 -0.8282 -0.2022
vn 0.3493 -0.5759 -0.7391
vn 0.0426 -0.1036 -0.9937
vn -0.2804 0.4083 -0.8687
vn -0.4963 0.7642 -0.4119
vn -0.5226 0.8282 0.2022
vn -0.3493 0.5759 0.7391
usemtl Default_OBJ
s off
f 1//1 2//1 3//1
f 1//1 3//1 4//1
f 1//2 4//2 5//2
f 1//1 5//1 6//1
f 1//1 6//1 7//1
f 1//1 7//1 8//1
f 1//2 8//2 9//2
f 1//1 9//1 10//1
f 1//1 10//1 11//1
f 1//1 11//1 2//1
f 12//3 13//3 14//3
f 12//4 14//4 15//4
f 12//3 15//3 16//3
f 12//3 16//3 17//3
f 12//3 17//3 18//3
f 12//3 18//3 19//3
f 12//3 19//3 20//3
f 12//4 20//4 21//4
f 12//3 21//3 22//3
f 12//3 22//3 13//3
f 13//5 22//5 3//5
f 13//5 3//5 2//5
f 22//6 21//6 4//6
f 22//6 4//6 3//6
f 21//7 20//7 5//7
f 21//7 5//7 4//7
f 20//8 19//8 6//8
f 20//8 6//8 5//8
f 19//9 18//9 7//9
f 19//9 7//9 6//9
f 18//10 17//10 8//10
f 18//10 8//10 7//10
f 17//11 16//11 9//11
f 17//11 9//11 8//11
f 16//12 15//12 10//12
f 16//12 10//12 9//12
f 15//13 14//13 11//13
f 15//13 11//13 10//13
f 14//14 13//14 2//14
f 14//14 2//14 11//14
